# Blender v2.90.1 OBJ File: 'cube.blend'
# www.blender.org
mtllib cube.mtl
o Cube
v 1.000000 1.000000 -1.000000
v 1.000000 -1.000000 -1.000000
v 1.000000 1.000000 1.000000
v 1.000000 -1.000000 1.000000
v -1.000000 1.000000 -1.000000
v -1.000000 -1.000000 -1.000000
v -1.000000 1.000000 1.000000
v -1.000000 -1.000000 1.000000
vt 0.753563 0.998508
vt 0.504864 0.998903
vt 0.502474 0.749744
vt 0.751174 0.749348
vt 0.748784 0.500189
vt 0.500085 0.500584
vt 0.253775 0.750139
vt 0.251386 0.500979
vt 0.497695 0.251424
vt 0.746395 0.251029
vt 0.997483 0.499794
vt 0.999873 0.748953
vt 0.005076 0.750534
vt 0.002687 0.501374
vn 0.0000 1.0000 0.0000
vn 0.0000 0.0000 1.0000
vn -1.0000 0.0000 0.0000
vn 0.0000 -1.0000 0.0000
vn 1.0000 0.0000 0.0000
vn 0.0000 0.0000 -1.0000
usemtl Material
s off
f 1/1/1 5/2/1 7/3/1 3/4/1
f 4/5/2 3/4/2 7/3/2 8/6/2
f 8/6/3 7/3/3 5/7/3 6/8/3
f 6/9/4 2/10/4 4/5/4 8/6/4
f 2/11/5 1/12/5 3/4/5 4/5/5
f 6/8/6 5/7/6 1/13/6 2/14/6
